PathFileType	4	(X/Y/Z)	C:\Users\chris\Documents\GitHub\baseballds\vids\pitch5_Sports2D\pitch5_Sports2D_px_person01.trc
DataRate	CameraRate	NumFrames	NumMarkers	Units	OrigDataRate	OrigDataStartFrame	OrigNumFrames
30	30	9	22	m	30	74	149
Frame#	Time	Hip			RHip			RKnee			RAnkle			RBigToe			RSmallToe			RHeel			LHip			LKnee			LAnkle			LBigToe			LSmallToe			LHeel			Neck			Head			Nose			RShoulder			RElbow			RWrist			LShoulder			LElbow			LWrist		
		X1	Y1	Z1	X2	Y2	Z2	X3	Y3	Z3	X4	Y4	Z4	X5	Y5	Z5	X6	Y6	Z6	X7	Y7	Z7	X8	Y8	Z8	X9	Y9	Z9	X10	Y10	Z10	X11	Y11	Z11	X12	Y12	Z12	X13	Y13	Z13	X14	Y14	Z14	X15	Y15	Z15	X16	Y16	Z16	X17	Y17	Z17	X18	Y18	Z18	X19	Y19	Z19	X20	Y20	Z20	X21	Y21	Z21	X22	Y22	Z22
74	2.466666666666667	433.4918585704082	560.4251188579741	0.0	410.2210357390301	564.7452512013634	0.0	393.28236295478985	663.0026728019991	0.0	380.10423707119895	755.3208177545907	0.0	399.5842790400419	786.05698326532	0.0	381.7626284329006	787.6027594672773	0.0	373.1334872091857	769.1090924336943	0.0	456.6946394566325	564.9476481529966	0.0	457.04092270926753	660.9254820728293	0.0	455.9817636686939	741.7758019209484	0.0	503.52204065426486	763.7176927918966	0.0	499.6664090465082	758.8247683976283	0.0	447.0253764292746	759.0039480910747	0.0	434.20507045261445	403.59963448189706	0.0	460.3947646877437	344.4172565354672	0.0	474.9071564311065	384.16934355457295	0.0	390.36241402158845	421.30173455008077	0.0	365.7347580203502	489.74064668235576	0.0	378.4100258678106	545.611829280964	0.0	458.37087463880675	423.4283044197823	0.0	452.3806353514884	485.0386671716723	0.0	414.4328610950819	529.6033796214481	0.0
75	2.5	433.7500823366895	560.0000955119573	0.0	410.53627554807514	563.0756343667082	0.0	393.9245466863232	662.1911802814799	0.0	380.16683828998043	755.2614156537818	0.0	399.55763705636434	786.5991959125802	0.0	381.7065862331838	787.8457188153501	0.0	373.11453945174264	769.1941019585618	0.0	456.85835364164404	563.4471683163706	0.0	457.57402199732053	659.6330900296025	0.0	456.21473064582005	741.5218846415465	0.0	503.4654264814626	764.2533322819585	0.0	499.43316465756993	759.0282544688649	0.0	447.47533254775584	758.2823648222513	0.0	434.07914276502015	403.6083690818562	0.0	461.3515891159125	343.4331687176538	0.0	474.89062936096263	382.9768733400567	0.0	389.87469888901046	420.74900857333546	0.0	365.4933737390719	489.64844117980476	0.0	378.3988664306262	545.3811331638192	0.0	458.27767492441404	423.09593646711073	0.0	450.5623271515109	485.17250435806056	0.0	414.8339509357302	529.2360672806614	0.0
76	2.533333333333333	433.472699948649	559.7479774260023	0.0	410.24981920048856	562.0238051600248	0.0	394.30907032786394	661.5266161080292	0.0	380.2305429208223	754.9131139667674	0.0	399.8783510062617	786.6045818632795	0.0	382.0406392492479	787.5783866956142	0.0	373.29818742518125	769.1429408393103	0.0	456.58849054160197	562.5814892198421	0.0	457.95269728867993	658.2652678270027	0.0	456.6039477065976	740.9107499110545	0.0	503.6113037523332	764.15299044235	0.0	499.4189247720926	758.5901228600476	0.0	447.8075657368587	757.4796254724872	0.0	433.9193408778999	403.72975234201976	0.0	461.7375766821669	343.2108082157291	0.0	474.656667543518	382.5706537186626	0.0	389.2365077030269	420.53166284901357	0.0	365.0578645819124	490.0216254784608	0.0	378.54835590568337	545.9407168660209	0.0	458.366125948286	423.1282925318172	0.0	451.0949582919419	484.7650315335462	0.0	416.3308746415706	527.9580172169038	0.0
77	2.5666666666666664	432.6986849142579	559.7188668092274	0.0	409.5477345212579	562.519803643254	0.0	394.6785303502562	661.2552510595701	0.0	380.7359721109831	754.4268373476677	0.0	400.50194422706807	786.0094736704931	0.0	382.7321195538747	786.8285952207435	0.0	373.7093606773488	769.0222168599221	0.0	456.45490662841934	562.9251479120312	0.0	458.17261753338187	657.720612047593	0.0	457.14030708072244	740.0027052952303	0.0	503.61949398685795	763.2660372719772	0.0	499.4499250946999	757.6424621092101	0.0	447.96859142100743	757.1887889148877	0.0	433.1353327284174	403.69819360848476	0.0	460.7643204112133	343.96297971751943	0.0	474.05395332673123	383.4858221717878	0.0	388.17946413457935	420.9841411933428	0.0	364.67707052272976	490.8725182705058	0.0	378.49317942929207	547.0095766083504	0.0	457.9162895271617	423.11876870013833	0.0	453.2081792266154	483.91190701939644	0.0	417.0303360998528	526.8402076887261	0.0
78	2.6	431.5161876919322	559.3041562645686	0.0	408.51053653856934	562.5538870925583	0.0	394.93591832113583	660.6008777979109	0.0	381.30582200178105	753.959867090986	0.0	400.8726463094955	785.3107297162202	0.0	382.8327873509096	786.2708204276591	0.0	374.16704412271406	768.6774678407778	0.0	456.20102481282373	562.6820845041104	0.0	458.49077477537895	656.8187994421469	0.0	457.66164095230977	739.3421900016244	0.0	504.0706809639787	762.4332564452136	0.0	499.9410506966081	757.006390344379	0.0	447.95102654435664	757.2292644691915	0.0	431.7746222805021	403.57368667196937	0.0	459.0809607350624	344.09417178290727	0.0	473.09414763840454	383.74090166219395	0.0	386.59623600409964	421.69887566064403	0.0	363.86014334585786	491.7360292210173	0.0	377.8422830398579	547.7231765436857	0.0	457.16831368671825	422.9809455693884	0.0	454.81583836413716	483.5311965916169	0.0	417.02769246067476	526.5433407351898	0.0
79	2.6333333333333333	430.29668616526504	557.9415896575965	0.0	407.30761238157703	560.2600917114213	0.0	394.8901385285503	658.8612693361903	0.0	381.4984507510199	753.7000576681902	0.0	400.7647396292488	784.8835481340607	0.0	382.12455654884485	786.1294803425762	0.0	374.6338988644844	768.0582549514747	0.0	455.2518256186539	560.2866568069452	0.0	458.877977964752	654.3288883175763	0.0	457.8615110118367	739.1545358874043	0.0	505.40010573296547	762.1881195131812	0.0	501.1870948205126	757.0442334128766	0.0	447.96834559831814	757.1170747634543	0.0	430.2212176681131	403.44853862336305	0.0	457.7468098312344	342.7719121014429	0.0	471.8134214960104	382.00208939429257	0.0	384.6302846547356	422.1654825446131	0.0	362.0854398564931	492.2496567984614	0.0	376.55443098034334	547.9885896496552	0.0	456.38696478278007	422.7799962012351	0.0	454.3526295654721	483.3743722483393	0.0	416.8516886513901	526.8035516348307	0.0
80	2.6666666666666665	429.25244012113075	556.3983025959194	0.0	406.0616847831886	557.6207377378189	0.0	394.5492910098667	657.3229964755562	0.0	381.41715324623055	753.8546624912703	0.0	400.56779121642705	784.6009976126359	0.0	381.676191798747	786.0997436360042	0.0	374.9022462716933	767.766759065793	0.0	453.8230140907759	557.589128858941	0.0	459.1689796061131	651.6545175194951	0.0	457.86553049403255	739.0792809628138	0.0	506.4995218895817	762.0922332427492	0.0	502.26506351525245	757.186630512642	0.0	448.31523204800567	756.8988726219989	0.0	428.3908386687493	403.0804857397113	0.0	456.41737151535204	341.2862692040852	0.0	470.1472874834644	379.72089442382304	0.0	382.42958743493944	422.37558123771436	0.0	359.6398902027608	492.4060536097105	0.0	374.88688641370857	548.1529044833778	0.0	455.196277498248	422.4848148628008	0.0	451.9829413682847	482.6720958495596	0.0	415.6311043047731	527.3548123995938	0.0
81	2.7	428.0183899538697	555.7898236164943	0.0	404.42674362230355	557.2940264833179	0.0	393.7399012630029	657.4750384286301	0.0	381.15263562835946	754.044077793138	0.0	400.34263522338716	784.1626779597023	0.0	381.978002242984	785.9255002151824	0.0	374.62907051949475	767.9219606285694	0.0	452.2758205269994	556.9472577176764	0.0	459.38344064224594	650.8834177685756	0.0	458.06853972946396	738.8015109968062	0.0	505.82368149821593	761.8052308071485	0.0	501.9778140099257	757.0283916411047	0.0	448.9126072677892	756.793360314037	0.0	426.07867167321115	402.52093422529714	0.0	454.19252372908034	340.8788946356442	0.0	467.9420133275133	378.5993724910927	0.0	379.82154178698204	422.5014978776081	0.0	357.190091869477	492.3138531451729	0.0	372.9377612621902	547.7991324932417	0.0	453.60207647935835	422.1751013637322	0.0	449.4044026420581	482.01769621889497	0.0	412.75656356198783	527.9583555294377	0.0
82	2.7333333333333334	426.08913324277216	555.7667152651147	0.0	401.98248513626163	558.3812381185363	0.0	392.0808223580284	658.4282171477626	0.0	380.5959099357826	753.4585584440358	0.0	399.73613320675173	783.3489006795985	0.0	382.1196632547736	785.3493582440354	0.0	373.89368633181954	767.5161605818239	0.0	450.30039717680677	557.4251661136657	0.0	459.65166754260827	651.3323331944874	0.0	458.4652123407926	738.3044771124228	0.0	503.63315480093274	761.871288612195	0.0	500.6732739948018	757.0825112432208	0.0	449.3081410798186	756.5964362552324	0.0	423.4838711479404	402.12020375565595	0.0	451.0978987483214	340.9503489152837	0.0	465.1245766173647	378.2925792261022	0.0	376.6575438724309	422.3953037306489	0.0	354.8080177292419	492.0296294602882	0.0	370.358825703055	546.2549910828343	0.0	451.95066206076933	421.9869240763293	0.0	447.84861363287024	482.3012908501503	0.0	409.7073448771192	528.1012382009909	0.0
